<?xml version="1.0" encoding="UTF-8" standalone="no"?>
<!DOCTYPE svg PUBLIC "-//W3C//DTD SVG 1.1//EN" "http://www.w3.org/Graphics/SVG/1.1/DTD/svg11.dtd">
<svg width="100%" height="100%" viewBox="0 0 128 128" version="1.1" xmlns="http://www.w3.org/2000/svg" xmlns:xlink="http://www.w3.org/1999/xlink" xml:space="preserve" xmlns:serif="http://www.serif.com/" style="fill-rule:evenodd;clip-rule:evenodd;stroke-linecap:round;stroke-linejoin:round;stroke-miterlimit:1.5;">
    <g transform="matrix(0.96875,0,0,0.96875,2,3)">
        <path d="M46.127,14.896C47.286,6.605 54.898,0 64,0C73.102,0 80.714,6.605 81.873,14.896C88.089,9.289 98.166,9.122 105.138,14.973C112.111,20.824 113.697,30.776 109.255,37.872C117.621,37.573 125.447,43.923 127.028,52.887C128.608,61.85 123.426,70.494 115.462,73.074C122.063,78.223 123.977,88.117 119.426,96C114.875,103.883 105.349,107.173 97.589,104.03C99.337,112.217 94.442,121.027 85.889,124.14C77.336,127.253 67.924,123.651 64,116.256C60.076,123.651 50.664,127.253 42.111,124.14C33.558,121.027 28.663,112.217 30.411,104.03C22.651,107.173 13.125,103.883 8.574,96C4.023,88.117 5.937,78.223 12.538,73.074C4.574,70.494 -0.608,61.85 0.972,52.887C2.553,43.923 10.379,37.573 18.745,37.872C14.303,30.776 15.889,20.824 22.862,14.973C29.834,9.122 39.911,9.289 46.127,14.896Z" style="fill:white;stroke:black;stroke-width:4.3px;"/>
    </g>
</svg>
