<?xml version="1.0" encoding="UTF-8" standalone="no"?>
<!DOCTYPE svg PUBLIC "-//W3C//DTD SVG 1.1//EN" "http://www.w3.org/Graphics/SVG/1.1/DTD/svg11.dtd">
<svg width="100%" height="100%" viewBox="0 0 200 250" version="1.1" xmlns="http://www.w3.org/2000/svg" xmlns:xlink="http://www.w3.org/1999/xlink" xml:space="preserve" xmlns:serif="http://www.serif.com/" style="fill-rule:evenodd;clip-rule:evenodd;stroke-linecap:round;stroke-linejoin:round;stroke-miterlimit:1.5;">
    <g transform="matrix(0.974874,0,0,0.906883,2.02513,21.1862)">
        <path d="M200,9.8C200,5.495 196.749,2 192.744,2L8.256,2C4.251,2 1,5.495 1,9.8L1,241.2C1,245.505 4.251,249 8.256,249L192.744,249C196.749,249 200,245.505 200,241.2L200,9.8Z" style="fill:rgb(235,235,235);stroke:black;stroke-width:4.43px;"/>
    </g>
    <g transform="matrix(1,0,0,1,-1,-6)">
        <path d="M124,29C124,20.163 113.255,13 100,13C86.745,13 76,20.163 76,29L124,29Z" style="fill:rgb(255,7,0);stroke:black;stroke-width:4.17px;"/>
    </g>
</svg>
